#!OML:ASF F:\VICON\USERDATA\INSTALL\rory3\rory3.ASF
:FULLY-SPECIFIED
:DEGREES
81
root 0.356691 17.6379 -16.3563 -1.90933 1.00976 0.491014
lowerback 6.33275 -2.47692 -1.66112
upperback 1.33648 -3.31775 3.97262
thorax -1.83433 -1.65126 5.30379
lowerneck -15.1024 -1.13128 -8.96892
upperneck 22.3123 0.00197555 2.88405
head 9.56259 -0.438732 2.50323
rclavicle -2.99171e-014 -2.22639e-014
rhumerus -37.9829 -20.2037 -70.3919
rradius 20.1988
rwrist 17.6955
rhand -12.9896 17.8465
rfingers 7.12502
rthumb 13.1032 -11.7219
lclavicle -2.99171e-014 -2.22639e-014
lhumerus -26.6929 -1.30829 85.2665
lradius 37.9442
lwrist -10.8869
lhand -14.7425 25.6358
lfingers 7.12502
lthumb 11.4131 55.3052
rfemur -25.8566 3.72638 22.5092
rtibia 36.9153
rfoot -5.92524 -8.83092
rtoes 2.55393
lfemur 2.84904 -2.33522 -20.8154
ltibia 49.6872
lfoot 23.1252 -9.31072
ltoes -10.8182
82
root 0.332163 17.6609 -16.1666 -2.03856 1.12053 0.306352
lowerback 6.58847 -2.48264 -1.62717
upperback 1.25095 -3.31809 4.0449
thorax -2.06285 -1.64537 5.37846
lowerneck -14.7761 -1.15162 -8.97458
upperneck 22.0712 -0.0728478 2.93771
head 9.42112 -0.462998 2.50867
rclavicle -6.06293e-015 2.06736e-014
rhumerus -37.7799 -20.1624 -70.345
rradius 20.2412
rwrist 17.6622
rhand -12.7569 17.6971
rfingers 7.12502
rthumb 13.3276 -11.8567
lclavicle -6.06293e-015 2.06736e-014
lhumerus -27.2716 -1.30656 85.4686
lradius 38.0499
lwrist -10.8527
lhand -14.8108 25.5412
lfingers 7.12502
lthumb 11.3472 55.2142
rfemur -24.8972 4.16805 22.8767
rtibia 36.8019
rfoot -6.36135 -9.45284
rtoes 3.46607
lfemur 1.59663 -2.15301 -20.4117
ltibia 51.7731
lfoot 21.8988 -9.08421
ltoes -10.6616
83
root 0.307455 17.6917 -15.9756 -2.0716 1.29107 0.230575
lowerback 6.60877 -2.51329 -1.65511
upperback 1.23242 -3.35991 4.06548
thorax -2.0861 -1.66539 5.42088
lowerneck -14.611 -1.18101 -9.09524
upperneck 21.8867 -0.133312 3.07164
head 9.32948 -0.482259 2.56461
rclavicle -6.55989e-015 -1.90833e-014
rhumerus -37.5764 -19.7578 -70.6108
rradius 20.6407
rwrist 17.2787
rhand -12.9396 17.8355
rfingers 7.12502
rthumb 13.1514 -11.7298
lclavicle -6.55989e-015 -1.90833e-014
lhumerus -27.5402 -1.07944 85.6301
lradius 37.9228
lwrist -10.9311
lhand -15.1151 25.2795
lfingers 7.12502
lthumb 11.0537 54.9684
rfemur -23.992 4.59227 23.1156
rtibia 36.6577
rfoot -6.87886 -10.127
rtoes 4.43366
lfemur 0.158009 -2.11064 -20.1714
ltibia 53.6695
lfoot 20.5366 -8.17645
ltoes -6.20693
84
root 0.286166 17.726 -15.7814 -2.05624 1.44131 0.101257
lowerback 6.49701 -2.55571 -1.62427
upperback 1.19059 -3.41316 4.10163
thorax -2.06108 -1.69214 5.44015
lowerneck -14.3079 -1.17406 -9.16711
upperneck 21.6696 -0.171665 3.21334
head 9.19916 -0.486366 2.61671
rclavicle 2.83268e-014 1.59028e-014
rhumerus -37.3257 -19.1515 -70.9532
rradius 21.0086
rwrist 16.7994
rhand -12.7625 17.5817
rfingers 7.12502
rthumb 13.3221 -11.9725
lclavicle 2.83268e-014 1.59028e-014
lhumerus -27.937 -0.973713 85.7797
lradius 37.9165
lwrist -10.7089
lhand -15.016 25.0266
lfingers 7.12502
lthumb 11.1493 54.7104
rfemur -23.1109 4.85816 23.4301
rtibia 36.4431
rfoot -7.34475 -10.6451
rtoes 4.31279
lfemur -1.39075 -1.95239 -19.8772
ltibia 55.411
lfoot 18.5076 -7.91021
ltoes -6.12523
85
root 0.262423 17.76 -15.5949 -2.14086 1.57347 -0.0908917
lowerback 6.63698 -2.56052 -1.49014
upperback 1.21774 -3.40978 4.09798
thorax -2.11954 -1.69018 5.36731
lowerneck -14.6629 -1.2489 -9.07779
upperneck 21.9133 -0.269558 3.24947
head 9.35617 -0.525028 2.60784
rclavicle 3.10104e-014 -3.97569e-014
rhumerus -36.8543 -19.478 -71.0186
rradius 20.9248
rwrist 17.1324
rhand -12.917 17.951
rfingers 7.12502
rthumb 13.1732 -11.6128
lclavicle 3.10104e-014 -3.97569e-014
lhumerus -28.188 -0.892017 85.8716
lradius 37.9048
lwrist -10.7361
lhand -14.8433 25.4557
lfingers 7.12502
lthumb 11.3159 55.1304
rfemur -22.1224 5.23988 23.8204
rtibia 36.1702
rfoot -7.94146 -11.2569
rtoes 4.98005
lfemur -2.83453 -1.79519 -19.5146
ltibia 56.9787
lfoot 16.9947 -7.70416
ltoes -6.06015
86
root 0.24252 17.781 -15.4094 -2.3092 1.81173 -0.115425
lowerback 6.75505 -2.57892 -1.48523
upperback 1.35768 -3.43768 4.04178
thorax -2.04143 -1.7078 5.30925
lowerneck -15.1423 -1.36969 -9.06808
upperneck 22.1803 -0.401939 3.29553
head 9.54859 -0.58474 2.6119
rclavicle -1.67973e-014 -3.18055e-015
rhumerus -36.1921 -20.042 -70.9971
rradius 20.6504
rwrist 17.8748
rhand -13.2643 18.3045
rfingers 7.12502
rthumb 12.8385 -11.2807
lclavicle -1.67973e-014 -3.18055e-015
lhumerus -28.3595 -0.690426 85.9278
lradius 37.9515
lwrist -10.9104
lhand -14.6716 25.8439
lfingers 7.12502
lthumb 11.4815 55.5095
rfemur -21.0616 5.28825 24.0251
rtibia 35.8765
rfoot -8.54284 -11.7106
rtoes 4.62954
lfemur -4.09336 -1.72437 -19.3604
ltibia 58.3832
lfoot 15.021 -7.35206
ltoes -5.81601
87
root 0.223367 17.7911 -15.223 -2.39925 2.07142 -0.183852
lowerback 6.69214 -2.55345 -1.36738
upperback 1.49063 -3.40124 3.93065
thorax -1.8865 -1.69481 5.1144
lowerneck -15.461 -1.52162 -9.13133
upperneck 22.2852 -0.636326 3.58792
head 9.66093 -0.666379 2.6985
rclavicle -1.09332e-014 9.54166e-015
rhumerus -35.6567 -20.3438 -71.2245
rradius 20.6053
rwrist 17.8997
rhand -13.8629 20.0087
rfingers 7.12502
rthumb 12.2613 -9.6119
lclavicle -1.09332e-014 9.54166e-015
lhumerus -28.5188 -0.744324 85.9827
lradius 37.9729
lwrist -11.0471
lhand -14.2516 26.5668
lfingers 7.12502
lthumb 11.8865 56.2094
rfemur -20.0984 5.26467 24.2784
rtibia 35.6108
rfoot -8.64486 -12.1162
rtoes 1.41361
lfemur -5.35326 -1.70033 -19.1426
ltibia 59.5934
lfoot 11.2854 -6.9985
ltoes -12.3716
88
root 0.202961 17.8076 -15.0341 -2.40284 2.3618 -0.35507
lowerback 6.52427 -2.51702 -1.15773
upperback 1.57029 -3.34338 3.83144
thorax -1.73471 -1.67 4.87501
lowerneck -15.577 -1.68633 -8.9596
upperneck 22.2495 -0.91503 3.65146
head 9.68814 -0.772141 2.65642
rclavicle -3.78685e-014 1.19271e-014
rhumerus -35.325 -20.2784 -71.6661
rradius 21.0251
rwrist 17.1393
rhand -14.7062 22.9529
rfingers 7.12502
rthumb 11.4481 -6.71456
lclavicle -3.78685e-014 1.19271e-014
lhumerus -28.6084 -0.880042 86.0717
lradius 37.8022
lwrist -10.9068
lhand -14.269 26.578
lfingers 7.12502
lthumb 11.8697 56.2216
rfemur -19.1586 5.20319 24.6684
rtibia 35.339
rfoot -8.46871 -12.5746
rtoes -2.00208
lfemur -6.7517 -1.66395 -18.8143
ltibia 60.619
lfoot 8.60294 -6.78622
ltoes -17.0863
89
root 0.185016 17.8259 -14.848 -2.43146 2.569 -0.373619
lowerback 6.45089 -2.52395 -1.08423
upperback 1.59814 -3.35133 3.70942
thorax -1.67619 -1.67514 4.70125
lowerneck -15.3899 -1.75224 -8.89523
upperneck 22.0576 -1.05256 3.69716
head 9.59419 -0.82243 2.64096
rclavicle -4.24405e-014 3.97569e-014
rhumerus -34.931 -19.9189 -72.2154
rradius 21.5119
rwrist 16.2382
rhand -14.7113 23.8982
rfingers 7.12502
rthumb 11.4432 -5.76951
lclavicle -4.24405e-014 3.97569e-014
lhumerus -28.9136 -0.713216 86.0573
lradius 37.7259
lwrist -10.9191
lhand -14.3204 25.7164
lfingers 7.12502
lthumb 11.8201 55.3629
rfemur -18.2042 5.14126 24.8785
rtibia 35.0584
rfoot -8.6237 -12.9287
rtoes -3.40485
lfemur -8.11286 -1.63756 -18.7151
ltibia 61.4744
lfoot 9.36337 -7.34686
ltoes -8.08023
